<svg xmlns="http://www.w3.org/2000/svg" id="facebook" width="42.527" height="42.589" viewBox="0 0 42.527 42.589">
    <defs>
        <style>
            .cls-1{fill:#fff}
        </style>
    </defs>
    <g id="Group_36">
        <path id="Path_61" d="M352.841-152.423a20.959 20.959 0 0 1-14.857-6.136 21.189 21.189 0 0 1-6.3-15.11 21.333 21.333 0 0 1 21.2-21.342h.091a21.057 21.057 0 0 1 14.934 6.2 21.148 21.148 0 0 1 6.3 15.059 21.378 21.378 0 0 1-21.237 21.33zm-19-21.25a19.053 19.053 0 0 0 5.665 13.585 18.807 18.807 0 0 0 13.457 5.51 19.219 19.219 0 0 0 19.1-19.172 19.009 19.009 0 0 0-5.668-13.535 18.922 18.922 0 0 0-13.415-5.572h-.082a19.175 19.175 0 0 0-19.052 19.184z" class="cls-1" transform="translate(-331.682 195.012)"/>
    </g>
    <g id="Group_37" transform="translate(15.12 9.915)">
        <path id="Path_62" d="M363.144-153.864v-12.452h-3.394l.438-2.9h2.956v-.662a7.17 7.17 0 0 1 1.86-5.233 6.121 6.121 0 0 1 4-1.481 11.094 11.094 0 0 1 2.49.128l-.256 2.974a14.085 14.085 0 0 0-1.667-.013c-1.99.143-2.586 1.607-2.586 3.5v.788h4.249l-.438 2.9h-3.78v12.452z" class="cls-1" transform="translate(-359.75 176.607)"/>
    </g>
</svg>
